<svg xmlns="http://www.w3.org/2000/svg" xmlns:xlink="http://www.w3.org/1999/xlink" width="670.557" height="46.364" viewBox="0 0 670.557 46.364"><defs><style>.a{fill:none;}.b{clip-path:url(#a);}.c,.d{fill:#fff;}.d{stroke:rgba(0,0,0,0);}.e{filter:url(#ad);}.f{filter:url(#ab);}.g{filter:url(#z);}.h{filter:url(#x);}.i{filter:url(#v);}.j{filter:url(#t);}.k{filter:url(#r);}.l{filter:url(#p);}.m{filter:url(#n);}.n{filter:url(#l);}.o{filter:url(#j);}.p{filter:url(#h);}.q{filter:url(#f);}.r{filter:url(#d);}.s{filter:url(#b);}</style><clipPath id="a"><rect class="a" width="670.557" height="46.364"/></clipPath><filter id="b" x="112.189" y="3.691" width="54.962" height="41.907" filterUnits="userSpaceOnUse"><feOffset dx="2" dy="2" input="SourceAlpha"/><feGaussianBlur stdDeviation="1" result="c"/><feFlood flood-color="#153039" flood-opacity="0.431"/><feComposite operator="in" in2="c"/><feComposite in="SourceGraphic"/></filter><filter id="d" x="161.229" y="1.174" width="45.241" height="44.557" filterUnits="userSpaceOnUse"><feOffset dx="2" dy="2" input="SourceAlpha"/><feGaussianBlur stdDeviation="1" result="e"/><feFlood flood-color="#153039" flood-opacity="0.431"/><feComposite operator="in" in2="e"/><feComposite in="SourceGraphic"/></filter><filter id="f" x="202.206" y="11.508" width="47.464" height="34.355" filterUnits="userSpaceOnUse"><feOffset dx="2" dy="2" input="SourceAlpha"/><feGaussianBlur stdDeviation="1" result="g"/><feFlood flood-color="#153039" flood-opacity="0.431"/><feComposite operator="in" in2="g"/><feComposite in="SourceGraphic"/></filter><filter id="h" x="245.451" y="1.041" width="13.475" height="44.69" filterUnits="userSpaceOnUse"><feOffset dx="2" dy="2" input="SourceAlpha"/><feGaussianBlur stdDeviation="1" result="i"/><feFlood flood-color="#153039" flood-opacity="0.431"/><feComposite operator="in" in2="i"/><feComposite in="SourceGraphic"/></filter><filter id="j" x="257.731" y="3.691" width="49.779" height="42.04" filterUnits="userSpaceOnUse"><feOffset dx="2" dy="2" input="SourceAlpha"/><feGaussianBlur stdDeviation="1" result="k"/><feFlood flood-color="#153039" flood-opacity="0.431"/><feComposite operator="in" in2="k"/><feComposite in="SourceGraphic"/></filter><filter id="l" x="305.647" y="3.691" width="51.114" height="42.172" filterUnits="userSpaceOnUse"><feOffset dx="2" dy="2" input="SourceAlpha"/><feGaussianBlur stdDeviation="1" result="m"/><feFlood flood-color="#153039" flood-opacity="0.431"/><feComposite operator="in" in2="m"/><feComposite in="SourceGraphic"/></filter><filter id="n" x="351.295" y="3.559" width="71.402" height="41.907" filterUnits="userSpaceOnUse"><feOffset dx="2" dy="2" input="SourceAlpha"/><feGaussianBlur stdDeviation="1" result="o"/><feFlood flood-color="#153039" flood-opacity="0.431"/><feComposite operator="in" in2="o"/><feComposite in="SourceGraphic"/></filter><filter id="p" x="429.11" y="3.426" width="61.391" height="42.172" filterUnits="userSpaceOnUse"><feOffset dx="2" dy="2" input="SourceAlpha"/><feGaussianBlur stdDeviation="1" result="q"/><feFlood flood-color="#153039" flood-opacity="0.431"/><feComposite operator="in" in2="q"/><feComposite in="SourceGraphic"/></filter><filter id="r" x="488.106" y="11.242" width="42.305" height="34.223" filterUnits="userSpaceOnUse"><feOffset dx="2" dy="2" input="SourceAlpha"/><feGaussianBlur stdDeviation="1" result="s"/><feFlood flood-color="#153039" flood-opacity="0.431"/><feComposite operator="in" in2="s"/><feComposite in="SourceGraphic"/></filter><filter id="t" x="527.346" y="0.908" width="45.241" height="44.557" filterUnits="userSpaceOnUse"><feOffset dx="2" dy="2" input="SourceAlpha"/><feGaussianBlur stdDeviation="1" result="u"/><feFlood flood-color="#153039" flood-opacity="0.431"/><feComposite operator="in" in2="u"/><feComposite in="SourceGraphic"/></filter><filter id="v" x="570.725" y="0.775" width="13.475" height="44.69" filterUnits="userSpaceOnUse"><feOffset dx="2" dy="2" input="SourceAlpha"/><feGaussianBlur stdDeviation="1" result="w"/><feFlood flood-color="#153039" flood-opacity="0.431"/><feComposite operator="in" in2="w"/><feComposite in="SourceGraphic"/></filter><filter id="x" x="581.403" y="11.242" width="40.035" height="34.355" filterUnits="userSpaceOnUse"><feOffset dx="2" dy="2" input="SourceAlpha"/><feGaussianBlur stdDeviation="1" result="y"/><feFlood flood-color="#153039" flood-opacity="0.431"/><feComposite operator="in" in2="y"/><feComposite in="SourceGraphic"/></filter><filter id="z" x="617.041" y="10.844" width="42.572" height="34.355" filterUnits="userSpaceOnUse"><feOffset dx="2" dy="2" input="SourceAlpha"/><feGaussianBlur stdDeviation="1" result="aa"/><feFlood flood-color="#153039" flood-opacity="0.431"/><feComposite operator="in" in2="aa"/><feComposite in="SourceGraphic"/></filter><filter id="ab" x="657.083" y="0.908" width="13.475" height="44.69" filterUnits="userSpaceOnUse"><feOffset dx="2" dy="2" input="SourceAlpha"/><feGaussianBlur stdDeviation="1" result="ac"/><feFlood flood-color="#153039" flood-opacity="0.431"/><feComposite operator="in" in2="ac"/><feComposite in="SourceGraphic"/></filter><filter id="ad" x="0" y="-0.001" width="104.873" height="46.364" filterUnits="userSpaceOnUse"><feOffset dx="2" dy="2" input="SourceAlpha"/><feGaussianBlur stdDeviation="1" result="ae"/><feFlood flood-color="#153039" flood-opacity="0.431"/><feComposite operator="in" in2="ae"/><feComposite in="SourceGraphic"/></filter></defs><g class="b"><g class="s" transform="matrix(1, 0, 0, 1, 0, 0)"><path class="c" d="M129.257,261.657h17.752l-8.275-15.1c-.133-.265-.267-.4-.534-.4h-.267c-.267,0-.4.132-.534.4ZM139.268,239a6.54,6.54,0,0,1,3.337.8,8.921,8.921,0,0,1,2.669,3.047l17.085,30.872c.133.4.267.663.133.795a.809.809,0,0,1-.8.4h-6.54a1.4,1.4,0,0,1-1.2-.662l-3.737-6.625H125.921l-3.6,6.625a1.4,1.4,0,0,1-1.2.662h-6.674a.809.809,0,0,1-.8-.4.871.871,0,0,1,.133-.795l16.951-30.872a7.677,7.677,0,0,1,2.536-3.047,5.1,5.1,0,0,1,2.936-.8Z" transform="translate(-0.4 -234.31)"/></g><g class="r" transform="matrix(1, 0, 0, 1, 0, 0)"><path class="c" d="M507.027,252.33a14.265,14.265,0,0,0,2.8-.265,3.649,3.649,0,0,0,1.735-.928,5.277,5.277,0,0,0,.934-1.722,13.959,13.959,0,0,0,.267-2.783v-10.2H494.08a16.779,16.779,0,0,0-2.8.265,3.65,3.65,0,0,0-1.735.928,5.277,5.277,0,0,0-.934,1.723,14.8,14.8,0,0,0-.267,2.65v4.637a16.428,16.428,0,0,0,.267,2.783,3.608,3.608,0,0,0,.934,1.722,3.65,3.65,0,0,0,1.735.928,14.264,14.264,0,0,0,2.8.265h12.947Zm5.739-21.995v-9.142a1.058,1.058,0,0,1,1.2-1.193h5.072a1.058,1.058,0,0,1,1.2,1.193v27.03a16.459,16.459,0,0,1-.667,4.77,6.542,6.542,0,0,1-2,3.18,9.562,9.562,0,0,1-3.871,1.855,25.349,25.349,0,0,1-5.873.53H493.28a24.631,24.631,0,0,1-5.873-.53,7.636,7.636,0,0,1-3.737-1.855,6.541,6.541,0,0,1-2-3.18,16.454,16.454,0,0,1-.667-4.77V240.8a16.454,16.454,0,0,1,.667-4.77,6.542,6.542,0,0,1,2-3.18A9.861,9.861,0,0,1,487.407,231a24.629,24.629,0,0,1,5.873-.53h19.487Z" transform="translate(-318.77 -217.83)"/></g><g class="q" transform="matrix(1, 0, 0, 1, 0, 0)"><path class="c" d="M794.674,298a1.4,1.4,0,0,1,1.2.662l12.146,21.2c.133.265.267.265.534.265h.267a.7.7,0,0,0,.534-.265l12.28-21.2a1.833,1.833,0,0,1,.4-.53c.133-.133.4-.133.8-.133h5.739a.809.809,0,0,1,.8.4.832.832,0,0,1-.133.927L815.1,323.97a7.692,7.692,0,0,1-1.6,1.855,5.019,5.019,0,0,1-2.669.53h-4.271a5.019,5.019,0,0,1-2.669-.53,3.736,3.736,0,0,1-1.6-1.855l-14.148-24.645A2.568,2.568,0,0,1,788,298.4a.809.809,0,0,1,.8-.4h5.873Z" transform="translate(-584.79 -285.49)"/></g><g class="p" transform="matrix(1, 0, 0, 1, 0, 0)"><path class="c" d="M1118.273,229.468a1.058,1.058,0,0,1,1.2,1.192V256.5a1.058,1.058,0,0,1-1.2,1.192H1113.2a1.058,1.058,0,0,1-1.2-1.192V230.66a1.058,1.058,0,0,1,1.2-1.192Zm0-10.468a1.058,1.058,0,0,1,1.2,1.193v4.9a1.058,1.058,0,0,1-1.2,1.193H1113.2a1.058,1.058,0,0,1-1.2-1.193v-4.9a1.058,1.058,0,0,1,1.2-1.193Z" transform="translate(-865.55 -216.96)"/></g><g class="o" transform="matrix(1, 0, 0, 1, 0, 0)"><path class="c" d="M1213.076,239a10.868,10.868,0,0,1,2.136.133c.534.132,1.068.265,1.468.4a7.323,7.323,0,0,1,1.2.928c.4.4.8.927,1.335,1.59l19.22,25.042a.734.734,0,0,0,.667.4h.4c.267,0,.4-.132.4-.53V240.193a1.058,1.058,0,0,1,1.2-1.192h5.472a1.058,1.058,0,0,1,1.2,1.192V269.74c0,2.12-.4,3.445-1.2,4.24a4.552,4.552,0,0,1-3.47,1.06h-4.4a8.9,8.9,0,0,1-2-.133c-.534-.132-1.068-.265-1.468-.4a7.315,7.315,0,0,1-1.2-.927c-.4-.4-.8-.927-1.335-1.59l-19.354-25.042c-.267-.265-.4-.4-.667-.4h-.4c-.267,0-.4.133-.4.53v26.765a1.058,1.058,0,0,1-1.2,1.193H1205.2a1.058,1.058,0,0,1-1.2-1.193V244.3c0-2.12.4-3.445,1.2-4.24a4.551,4.551,0,0,1,3.47-1.06h4.4Z" transform="translate(-945.27 -234.31)"/></g><g class="n" transform="matrix(1, 0, 0, 1, 0, 0)"><path class="c" d="M1571.008,260.862a11.215,11.215,0,0,0,.4,3.312,4.557,4.557,0,0,0,1.068,2.12,4.734,4.734,0,0,0,2.136,1.192,12.1,12.1,0,0,0,3.337.4H1593.3a12.1,12.1,0,0,0,3.337-.4,4.734,4.734,0,0,0,2.136-1.192,3.592,3.592,0,0,0,1.068-2.12,11.841,11.841,0,0,0,.4-3.312v-7.685a11.211,11.211,0,0,0-.4-3.312,4.557,4.557,0,0,0-1.068-2.12,4.734,4.734,0,0,0-2.136-1.192,12.1,12.1,0,0,0-3.337-.4h-15.349a12.1,12.1,0,0,0-3.337.4,4.735,4.735,0,0,0-2.136,1.192,3.592,3.592,0,0,0-1.068,2.12,11.846,11.846,0,0,0-.4,3.313ZM1593.565,239a24.2,24.2,0,0,1,6.674.8,11.357,11.357,0,0,1,4.538,2.385,9.074,9.074,0,0,1,2.536,4.24,21.41,21.41,0,0,1,.8,6.228v8.877a22.371,22.371,0,0,1-.8,6.36,9.074,9.074,0,0,1-2.536,4.24,11.356,11.356,0,0,1-4.538,2.385,25.262,25.262,0,0,1-6.674.663h-16.017a31.447,31.447,0,0,1-6.674-.663,9.92,9.92,0,0,1-4.538-2.385,9.074,9.074,0,0,1-2.536-4.24,21.729,21.729,0,0,1-.8-6.36v-8.877a20.785,20.785,0,0,1,.8-6.228,9.786,9.786,0,0,1,2.536-4.24,11.357,11.357,0,0,1,4.538-2.385,24.2,24.2,0,0,1,6.674-.8Z" transform="translate(-1256.35 -234.31)"/></g><g class="m" transform="matrix(1, 0, 0, 1, 0, 0)"><path class="c" d="M1912.741,238.132c.4,0,.534.265.668.662l8.409,27.692a.353.353,0,0,0,.4.4h.267a.353.353,0,0,0,.4-.4l8.409-25.307a4.9,4.9,0,0,1,1.468-2.385,4.158,4.158,0,0,1,2.269-.662h5.072a4.936,4.936,0,0,1,2.669.662,4.176,4.176,0,0,1,1.468,2.253l8.542,25.307q.2.4.4.4h.267a.353.353,0,0,0,.4-.4l8.142-27.692c.134-.265.134-.4.4-.53.133-.133.267-.133.534-.133h6.941c.267,0,.4.133.534.4a1.669,1.669,0,0,1-.134.795l-9.877,30.872a7.777,7.777,0,0,1-1.6,3.048,3.277,3.277,0,0,1-2.4.8h-6.006a3.5,3.5,0,0,1-2.4-.8,8.941,8.941,0,0,1-1.6-3.048l-8.142-24.38a.353.353,0,0,0-.4-.4h-.267a.353.353,0,0,0-.4.4l-8.275,24.38a8.95,8.95,0,0,1-1.6,3.048,3.278,3.278,0,0,1-2.4.8h-5.873a5.042,5.042,0,0,1-1.468-.132,4.765,4.765,0,0,1-1.2-.53,2.891,2.891,0,0,1-.934-1.193,15.378,15.378,0,0,1-.8-1.988l-9.477-30.872a2.315,2.315,0,0,1-.134-.795c0-.265.267-.4.534-.4h6.941Z" transform="translate(-1552.7 -233.44)"/></g><g class="l" transform="matrix(1, 0, 0, 1, 0, 0)"><path class="c" d="M2498.545,237a8.9,8.9,0,0,1,2,.133,4.8,4.8,0,0,1,1.469.53,3.137,3.137,0,0,1,1.068,1.193c.267.53.667,1.192,1.068,1.987l10.812,24.645a.735.735,0,0,0,.667.4h.667a.617.617,0,0,0,.667-.4l10.811-24.645a13.473,13.473,0,0,1,1.068-1.987,3.14,3.14,0,0,1,1.068-1.193,2.811,2.811,0,0,1,1.468-.53,8.9,8.9,0,0,1,2-.133h5.472q2.6,0,3.6,1.193c.667.795.934,2.12.934,4.107v29.548a1.058,1.058,0,0,1-1.2,1.193h-5.339a1.058,1.058,0,0,1-1.2-1.193V245.082c0-.4-.134-.53-.4-.53h-.534a.617.617,0,0,0-.667.4l-10.411,23.055a10.165,10.165,0,0,1-1.335,2.385,8.407,8.407,0,0,1-1.335,1.59,7.2,7.2,0,0,1-1.735.927,10.658,10.658,0,0,1-2.269.265h-2.536a11.833,11.833,0,0,1-2.269-.265,3.193,3.193,0,0,1-1.735-.927,5.306,5.306,0,0,1-1.335-1.59c-.4-.662-.8-1.457-1.335-2.385l-10.411-23.055a.617.617,0,0,0-.667-.4h-.534c-.267,0-.4.132-.4.53v26.765a1.058,1.058,0,0,1-1.2,1.193H2489.2a1.058,1.058,0,0,1-1.2-1.193V242.3c0-1.988.267-3.312.935-4.107S2490.8,237,2492.672,237h5.873Z" transform="translate(-2057.89 -232.57)"/></g><g class="k" transform="matrix(1, 0, 0, 1, 0, 0)"><path class="c" d="M2937.074,307.66h20.955a.84.84,0,0,0,.934-.928v-2.12a3.24,3.24,0,0,0-.667-2.252,3.876,3.876,0,0,0-2.536-.663h-12.947c-2.269,0-3.737.4-4.538,1.06s-1.2,1.855-1.2,3.577ZM2957.229,296a20.8,20.8,0,0,1,4.4.4,5.64,5.64,0,0,1,2.8,1.458,5.729,5.729,0,0,1,1.468,2.65,16.6,16.6,0,0,1,.4,3.975v4.9a3.237,3.237,0,0,1-.668,2.253,3.552,3.552,0,0,1-2.269.663h-26.16v1.192a4.319,4.319,0,0,0,1.2,3.445c.8.663,2.269,1.06,4.538,1.06h21.623c.667,0,.935.265.935.928v4.372c0,.663-.267.928-.935.928h-22.29a24.632,24.632,0,0,1-5.873-.53,7.635,7.635,0,0,1-3.737-1.855,6.544,6.544,0,0,1-2-3.18,16.446,16.446,0,0,1-.667-4.77v-7.42a16.446,16.446,0,0,1,.667-4.77,6.544,6.544,0,0,1,2-3.18,9.862,9.862,0,0,1,3.737-1.855,24.63,24.63,0,0,1,5.873-.53H2957.5Z" transform="translate(-2440.89 -283.76)"/></g><g class="j" transform="matrix(1, 0, 0, 1, 0, 0)"><path class="c" d="M3250.027,250.33a14.265,14.265,0,0,0,2.8-.265,3.417,3.417,0,0,0,2.669-2.65,13.956,13.956,0,0,0,.267-2.782v-10.2H3237.08a16.78,16.78,0,0,0-2.8.265,3.648,3.648,0,0,0-1.735.928,3.608,3.608,0,0,0-.934,1.722,14.789,14.789,0,0,0-.267,2.65v4.637a16.415,16.415,0,0,0,.267,2.782,3.608,3.608,0,0,0,.934,1.722,3.648,3.648,0,0,0,1.735.928,14.259,14.259,0,0,0,2.8.265h12.947Zm5.74-21.995v-9.142a1.058,1.058,0,0,1,1.2-1.193h5.072a1.058,1.058,0,0,1,1.2,1.193v27.03a16.446,16.446,0,0,1-.667,4.77,6.539,6.539,0,0,1-2,3.18,9.567,9.567,0,0,1-3.871,1.855,25.348,25.348,0,0,1-5.873.53h-14.549a24.632,24.632,0,0,1-5.873-.53,7.636,7.636,0,0,1-3.737-1.855,6.54,6.54,0,0,1-2-3.18,16.438,16.438,0,0,1-.667-4.77V238.8a16.438,16.438,0,0,1,.667-4.77,6.54,6.54,0,0,1,2-3.18,9.863,9.863,0,0,1,3.737-1.855,24.63,24.63,0,0,1,5.873-.53h19.487Z" transform="translate(-2695.65 -216.09)"/></g><g class="i" transform="matrix(1, 0, 0, 1, 0, 0)"><path class="c" d="M3555.273,227.467a1.058,1.058,0,0,1,1.2,1.192V254.5a1.058,1.058,0,0,1-1.2,1.193H3550.2a1.058,1.058,0,0,1-1.2-1.193V228.66a1.058,1.058,0,0,1,1.2-1.192Zm0-10.468a1.058,1.058,0,0,1,1.2,1.193v4.9a1.058,1.058,0,0,1-1.2,1.193H3550.2a1.058,1.058,0,0,1-1.2-1.193v-4.9a1.058,1.058,0,0,1,1.2-1.193Z" transform="translate(-2977.27 -215.22)"/></g><g class="h" transform="matrix(1, 0, 0, 1, 0, 0)"><path class="c" d="M3662.1,296c.667,0,.934.265.934.927V301.3c0,.662-.267.927-.934.927H3642.08a14.268,14.268,0,0,0-2.8.265,3.651,3.651,0,0,0-1.735.927,5.28,5.28,0,0,0-.934,1.723,14.832,14.832,0,0,0-.267,2.65v4.638a16.465,16.465,0,0,0,.267,2.782,2.764,2.764,0,0,0,.934,1.723,3.11,3.11,0,0,0,1.735.928,14.271,14.271,0,0,0,2.8.265H3662.1c.667,0,.934.265.934.927v4.372c0,.663-.267.928-.934.928H3641.28a24.627,24.627,0,0,1-5.873-.53,7.636,7.636,0,0,1-3.737-1.855,6.549,6.549,0,0,1-2-3.18,16.473,16.473,0,0,1-.667-4.77V306.6a16.472,16.472,0,0,1,.667-4.77,6.549,6.549,0,0,1,2-3.18,9.859,9.859,0,0,1,3.737-1.855,24.627,24.627,0,0,1,5.873-.53H3662.1Z" transform="translate(-3046.6 -283.76)"/></g><g class="g" transform="matrix(1, 0, 0, 1, 0, 0)"><path class="c" d="M3923.762,315.922a1.638,1.638,0,0,0,1.2-.4,1.749,1.749,0,0,0,.4-1.325v-4.505h-18.953a3.3,3.3,0,0,0-2.269.663,2.608,2.608,0,0,0-.668,1.855v1.06a2.729,2.729,0,0,0,.668,1.988,3.3,3.3,0,0,0,2.269.662h17.351Zm-3.47-22.525a25.349,25.349,0,0,1,5.873.53,8.963,8.963,0,0,1,3.738,1.855,6.539,6.539,0,0,1,2,3.18,16.429,16.429,0,0,1,.668,4.77V317.38a8.676,8.676,0,0,1-.134,1.987,1.775,1.775,0,0,1-.667,1.192,2.58,2.58,0,0,1-1.2.663,7.687,7.687,0,0,1-1.868.133h-24.693a16.551,16.551,0,0,1-3.871-.4,5.172,5.172,0,0,1-2.4-1.325,4.273,4.273,0,0,1-1.335-2.252,11.832,11.832,0,0,1-.4-3.313V311.55a10.249,10.249,0,0,1,.4-2.915,4.448,4.448,0,0,1,1.335-2.12,7.009,7.009,0,0,1,2.4-1.325,15.775,15.775,0,0,1,3.871-.4H3925.1v-.928a9.179,9.179,0,0,0-.267-2.12,2.52,2.52,0,0,0-.935-1.457,3.022,3.022,0,0,0-1.735-.795,14.253,14.253,0,0,0-2.8-.265h-21.623c-.667,0-.934-.265-.934-.927v-4.373c0-.662.267-.927.934-.927h22.424Z" transform="translate(-3277.96 -281.16)"/></g><g class="f" transform="matrix(1, 0, 0, 1, 0, 0)"><path class="c" d="M4202.273,218a1.059,1.059,0,0,1,1.2,1.193v36.3a1.059,1.059,0,0,1-1.2,1.193H4197.2a1.057,1.057,0,0,1-1.2-1.193v-36.3a1.057,1.057,0,0,1,1.2-1.193Z" transform="translate(-3537.92 -216.09)"/></g><g class="e" transform="matrix(1, 0, 0, 1, 0, 0)"><path class="d" d="M80.3,39.087,56.388,9.736,48.917,18.3,65.84,39.087H49.807L34,19.721l-8.229,9.534,8,9.831L0,39.077,34.022,0,48.491,17.775V0H64.7l24.19,29.673,8.386-9.634V39.087Z" transform="translate(2.1 1.78)"/></g></g></svg>