<svg xmlns="http://www.w3.org/2000/svg" viewBox="0 0 191.75 24.604">
  <defs>
    <style>
      .cls-1 {
        fill: #fff;
      }
    </style>
  </defs>
  <g id="Group_291" data-name="Group 291" transform="translate(-825 -84.291)">
    <path id="Path_9" data-name="Path 9" class="cls-1" d="M733.548,666.27l-.649-1.483-.648,1.483Zm-.927-2.27h.6l1.622,3.753h-.695l-.371-.881h-1.761l-.371.881H731Z" transform="translate(122.606 -558.998)"/>
    <path id="Path_10" data-name="Path 10" class="cls-1" d="M886.047,667.131V665h.648v2.131c0,.695.371,1.065.927,1.065a.9.9,0,0,0,.927-1.019v-2.131h.648v2.131a1.5,1.5,0,0,1-1.621,1.668A1.452,1.452,0,0,1,886,667.224Z" transform="translate(-25.212 -559.952)"/>
    <path id="Path_11" data-name="Path 11" class="cls-1" d="M1033.2,665.6H1032V665h3.012v.6h-1.158v3.1h-.649Z" transform="translate(-164.447 -559.952)"/>
    <path id="Path_12" data-name="Path 12" class="cls-1" d="M1171.2,664.946h0a1.253,1.253,0,1,0-2.5-.046h0a1.253,1.253,0,1,0,2.5.046Zm-3.2,0h0a1.946,1.946,0,0,1,3.892-.046h0a1.862,1.862,0,0,1-1.946,1.9,1.89,1.89,0,0,1-1.946-1.9Z" transform="translate(-294.146 -558.045)"/>
    <path id="Path_13" data-name="Path 13" class="cls-1" d="M1331,665h.695l1.158,1.714,1.112-1.714h.7v3.706h-.649v-2.687l-1.158,1.76h-.046l-1.159-1.76v2.687H1331Z" transform="translate(-449.594 -559.952)"/>
    <path id="Path_14" data-name="Path 14" class="cls-1" d="M1489.548,666.27l-.649-1.483-.648,1.483Zm-.927-2.27h.6l1.622,3.753h-.695l-.371-.881h-1.76l-.371.881H1487Z" transform="translate(-598.366 -558.998)"/>
    <path id="Path_15" data-name="Path 15" class="cls-1" d="M1632.2,665.6H1631V665h3.012v.6h-1.158v3.1h-.649Z" transform="translate(-735.695 -559.952)"/>
    <path id="Path_16" data-name="Path 16" class="cls-1" d="M1775,668.707h.648V665H1775Z" transform="translate(-873.022 -559.952)"/>
    <path id="Path_17" data-name="Path 17" class="cls-1" d="M1874,665h.6l1.992,2.548V665h.648v3.706h-.555l-2.039-2.641v2.641H1874Z" transform="translate(-967.436 -559.952)"/>
    <path id="Path_18" data-name="Path 18" class="cls-1" d="M2023.047,664.946h0a1.917,1.917,0,0,1,1.9-1.946,2,2,0,0,1,1.436.509l-.417.51a1.469,1.469,0,0,0-1.02-.417,1.247,1.247,0,0,0-1.2,1.3h0a1.242,1.242,0,0,0,1.25,1.344,1.336,1.336,0,0,0,.881-.278v-.7h-.973v-.556h1.575v1.575a2.271,2.271,0,0,1-1.529.556,1.862,1.862,0,0,1-1.945-1.9Z" transform="translate(-1109.531 -558.045)"/>
    <path id="Path_19" data-name="Path 19" class="cls-1" d="M2277,665h.7v1.529h1.76V665h.648v3.706h-.648v-1.575h-1.76v1.575h-.7Z" transform="translate(-1351.76 -559.952)"/>
    <path id="Path_20" data-name="Path 20" class="cls-1" d="M2428,665h2.733v.556h-2.085v.973h1.854v.6h-1.854v.973h2.132v.6H2428Z" transform="translate(-1495.767 -559.952)"/>
    <path id="Path_21" data-name="Path 21" class="cls-1" d="M2563.548,666.27l-.648-1.483-.648,1.483Zm-.926-2.27h.6l1.622,3.753h-.7l-.37-.881h-1.761l-.372.881H2561Z" transform="translate(-1622.604 -558.998)"/>
    <path id="Path_22" data-name="Path 22" class="cls-1" d="M2721,665h.648v3.1h1.945v.6H2721Z" transform="translate(-1775.192 -559.952)"/>
    <path id="Path_23" data-name="Path 23" class="cls-1" d="M2839.159,665.6H2838V665h3.011v.6h-1.2v3.1h-.648Z" transform="translate(-1886.771 -559.952)"/>
    <path id="Path_24" data-name="Path 24" class="cls-1" d="M2981,665h.648v1.529h1.762V665h.647v3.706h-.647v-1.575h-1.762v1.575H2981Z" transform="translate(-2023.147 -559.952)"/>
    <path id="Path_25" data-name="Path 25" class="cls-1" d="M3126.046,664.946h0a1.965,1.965,0,0,1,3.336-1.39l-.417.463a1.4,1.4,0,0,0-1.018-.463,1.248,1.248,0,0,0-1.205,1.3h0a1.262,1.262,0,0,0,1.205,1.344,1.506,1.506,0,0,0,1.065-.464l.417.417A1.969,1.969,0,0,1,3126,664.9Z" transform="translate(-2161.426 -558.045)"/>
    <path id="Path_26" data-name="Path 26" class="cls-1" d="M3274.548,666.27l-.648-1.483-.648,1.483Zm-.926-2.27h.6l1.621,3.753h-.695l-.371-.881h-1.759l-.372.881H3272Z" transform="translate(-2300.665 -558.998)"/>
    <path id="Path_27" data-name="Path 27" class="cls-1" d="M3433.622,664.9c.464,0,.788-.232.788-.6h0c0-.417-.278-.6-.788-.6h-.973v1.251h.973ZM3432,663.046h1.668a1.485,1.485,0,0,1,1.066.371,1.12,1.12,0,0,1,.324.788h0a1.1,1.1,0,0,1-.88,1.112l1.019,1.39h-.787l-.926-1.3h-.834v1.3H3432v-3.66Z" transform="translate(-2453.25 -558.045)"/>
    <path id="Path_28" data-name="Path 28" class="cls-1" d="M3578,665h2.735v.556h-2.085v.973h1.854v.6h-1.854v.973h2.132v.6H3578Z" transform="translate(-2592.485 -559.952)"/>
    <path id="Path_29" data-name="Path 29" class="cls-1" d="M119.026,246.923h6.162l-2.873-5.282c-.046-.093-.093-.139-.185-.139h-.093c-.093,0-.139.046-.185.139ZM122.5,239a2.257,2.257,0,0,1,1.158.278,3.112,3.112,0,0,1,.927,1.066l5.931,10.8c.046.139.093.232.046.278a.28.28,0,0,1-.278.139h-2.27a.487.487,0,0,1-.417-.232l-1.3-2.317h-8.433l-1.251,2.317a.487.487,0,0,1-.417.232h-2.317a.28.28,0,0,1-.278-.139.307.307,0,0,1,.046-.278l5.884-10.8a2.679,2.679,0,0,1,.88-1.066,1.762,1.762,0,0,1,1.019-.278Z" transform="translate(711.414 -153.69)"/>
    <path id="Path_30" data-name="Path 30" class="cls-1" d="M490.035,231.305a4.919,4.919,0,0,0,.973-.093,1.263,1.263,0,0,0,.6-.324,1.848,1.848,0,0,0,.324-.6,4.916,4.916,0,0,0,.093-.973v-3.568h-6.487a5.785,5.785,0,0,0-.973.093,1.264,1.264,0,0,0-.6.324,1.851,1.851,0,0,0-.324.6,5.2,5.2,0,0,0-.093.927v1.622a5.773,5.773,0,0,0,.093.973,1.19,1.19,0,0,0,.926.927,4.919,4.919,0,0,0,.973.093h4.494Zm1.992-7.691v-3.2a.369.369,0,0,1,.417-.417H494.2a.369.369,0,0,1,.417.417v9.452a5.788,5.788,0,0,1-.232,1.668,2.289,2.289,0,0,1-.695,1.112,3.311,3.311,0,0,1-1.344.649,8.736,8.736,0,0,1-2.038.185h-5.05a8.489,8.489,0,0,1-2.039-.185,2.643,2.643,0,0,1-1.3-.649,2.29,2.29,0,0,1-.7-1.112,5.792,5.792,0,0,1-.232-1.668v-2.595a5.793,5.793,0,0,1,.232-1.668,2.291,2.291,0,0,1,.7-1.112,3.414,3.414,0,0,1,1.3-.649,8.489,8.489,0,0,1,2.039-.185h6.765Z" transform="translate(361.023 -135.57)"/>
    <path id="Path_31" data-name="Path 31" class="cls-1" d="M790.317,298a.487.487,0,0,1,.417.232l4.216,7.413c.046.093.093.093.185.093h.093a.24.24,0,0,0,.185-.093l4.263-7.413a.645.645,0,0,1,.139-.185c.046-.046.139-.046.278-.046h1.992a.281.281,0,0,1,.278.139.292.292,0,0,1-.047.324l-4.911,8.618a2.694,2.694,0,0,1-.556.649,1.735,1.735,0,0,1-.927.185H794.44a1.731,1.731,0,0,1-.927-.185,1.3,1.3,0,0,1-.556-.649l-4.911-8.618a.9.9,0,0,1-.046-.324.28.28,0,0,1,.278-.139h2.039Z" transform="translate(68.247 -209.956)"/>
    <path id="Path_32" data-name="Path 32" class="cls-1" d="M1114.178,222.66a.369.369,0,0,1,.417.417v9.035a.369.369,0,0,1-.417.417h-1.761a.369.369,0,0,1-.417-.417v-9.035a.369.369,0,0,1,.417-.417Zm0-3.66a.369.369,0,0,1,.417.417v1.714a.369.369,0,0,1-.417.417h-1.761a.369.369,0,0,1-.417-.417v-1.714a.369.369,0,0,1,.417-.417Z" transform="translate(-240.741 -134.617)"/>
    <path id="Path_33" data-name="Path 33" class="cls-1" d="M1207.15,239a3.743,3.743,0,0,1,.741.046c.186.046.371.093.51.139a2.553,2.553,0,0,1,.417.324c.139.139.278.324.463.556l6.672,8.757a.254.254,0,0,0,.232.139h.139c.093,0,.139-.046.139-.185v-9.359a.368.368,0,0,1,.416-.417h1.9a.369.369,0,0,1,.417.417v10.332a2.027,2.027,0,0,1-.417,1.483,1.572,1.572,0,0,1-1.2.371h-1.529a3.065,3.065,0,0,1-.695-.046c-.185-.046-.371-.093-.51-.139a2.55,2.55,0,0,1-.417-.324c-.139-.139-.277-.324-.463-.556l-6.719-8.757c-.093-.093-.139-.139-.232-.139h-.139c-.093,0-.139.046-.139.185v9.359a.369.369,0,0,1-.417.417h-1.9a.369.369,0,0,1-.417-.417V240.853a2.024,2.024,0,0,1,.417-1.483,1.571,1.571,0,0,1,1.2-.371h1.529Z" transform="translate(-328.478 -153.69)"/>
    <path id="Path_34" data-name="Path 34" class="cls-1" d="M1565.78,246.645a3.95,3.95,0,0,0,.139,1.158,1.591,1.591,0,0,0,.371.741,1.635,1.635,0,0,0,.741.417,4.172,4.172,0,0,0,1.158.139h5.328a4.178,4.178,0,0,0,1.159-.139,1.639,1.639,0,0,0,.741-.417,1.258,1.258,0,0,0,.371-.741,4.167,4.167,0,0,0,.139-1.158v-2.687a3.944,3.944,0,0,0-.139-1.158,1.592,1.592,0,0,0-.371-.741,1.64,1.64,0,0,0-.741-.417,4.179,4.179,0,0,0-1.159-.139h-5.328a4.173,4.173,0,0,0-1.158.139,1.636,1.636,0,0,0-.741.417,1.256,1.256,0,0,0-.371.741,4.172,4.172,0,0,0-.139,1.158Zm7.83-7.645a8.343,8.343,0,0,1,2.317.278,3.927,3.927,0,0,1,1.575.834,3.175,3.175,0,0,1,.88,1.483,7.535,7.535,0,0,1,.278,2.178v3.1a7.873,7.873,0,0,1-.278,2.224,3.176,3.176,0,0,1-.88,1.483,3.929,3.929,0,0,1-1.575.834,8.709,8.709,0,0,1-2.317.232h-5.559a10.837,10.837,0,0,1-2.317-.232,3.431,3.431,0,0,1-1.575-.834,3.181,3.181,0,0,1-.881-1.483,7.642,7.642,0,0,1-.278-2.224v-3.1a7.31,7.31,0,0,1,.278-2.178,3.431,3.431,0,0,1,.881-1.483,3.925,3.925,0,0,1,1.575-.834,8.338,8.338,0,0,1,2.317-.278Z" transform="translate(-670.845 -153.69)"/>
    <path id="Path_35" data-name="Path 35" class="cls-1" d="M1907.687,238.046c.139,0,.185.093.231.232l2.919,9.684a.123.123,0,0,0,.139.139h.093a.123.123,0,0,0,.139-.139l2.919-8.85a1.715,1.715,0,0,1,.51-.834,1.435,1.435,0,0,1,.787-.232h1.761a1.7,1.7,0,0,1,.927.232,1.465,1.465,0,0,1,.51.788l2.965,8.849c.047.093.093.139.139.139h.092a.123.123,0,0,0,.139-.139l2.826-9.683c.046-.093.046-.139.139-.185.046-.046.093-.046.185-.046h2.41c.093,0,.139.046.186.139a.587.587,0,0,1-.046.278l-3.429,10.8a2.716,2.716,0,0,1-.556,1.066,1.132,1.132,0,0,1-.834.278h-2.085a1.211,1.211,0,0,1-.834-.278,3.137,3.137,0,0,1-.556-1.066l-2.826-8.525a.123.123,0,0,0-.139-.139h-.093a.123.123,0,0,0-.139.139l-2.872,8.525a3.138,3.138,0,0,1-.556,1.066,1.132,1.132,0,0,1-.834.278h-2.039a1.738,1.738,0,0,1-.51-.046,1.657,1.657,0,0,1-.417-.185,1.009,1.009,0,0,1-.324-.417,5.336,5.336,0,0,1-.278-.695l-3.29-10.8a.812.812,0,0,1-.047-.278c0-.093.093-.139.186-.139h2.409Z" transform="translate(-996.999 -152.736)"/>
    <path id="Path_36" data-name="Path 36" class="cls-1" d="M2491.659,237a3.065,3.065,0,0,1,.7.046,1.66,1.66,0,0,1,.51.185,1.1,1.1,0,0,1,.371.417c.093.185.231.417.371.695l3.752,8.618a.255.255,0,0,0,.232.139h.232a.214.214,0,0,0,.232-.139l3.753-8.618a4.654,4.654,0,0,1,.37-.695,1.09,1.09,0,0,1,.371-.417.975.975,0,0,1,.51-.185,3.069,3.069,0,0,1,.7-.046h1.9a1.564,1.564,0,0,1,1.252.417,2.266,2.266,0,0,1,.324,1.436v10.332a.369.369,0,0,1-.417.417h-1.854a.368.368,0,0,1-.416-.417v-9.359c0-.139-.046-.185-.139-.185h-.186a.214.214,0,0,0-.231.139l-3.615,8.062a3.58,3.58,0,0,1-.462.834,2.947,2.947,0,0,1-.463.556,2.485,2.485,0,0,1-.6.324,3.672,3.672,0,0,1-.788.093h-.881a4.088,4.088,0,0,1-.788-.093,1.1,1.1,0,0,1-.6-.324,1.862,1.862,0,0,1-.463-.556c-.139-.232-.278-.51-.463-.834l-3.615-8.062a.214.214,0,0,0-.231-.139h-.185c-.093,0-.139.046-.139.185v9.359a.368.368,0,0,1-.417.417h-1.854a.369.369,0,0,1-.417-.417V238.853a2.259,2.259,0,0,1,.325-1.436,1.61,1.61,0,0,1,1.3-.417h2.037Z" transform="translate(-1552.987 -151.782)"/>
    <path id="Path_37" data-name="Path 37" class="cls-1" d="M2932.455,300.077h7.273a.293.293,0,0,0,.325-.324v-.741a1.137,1.137,0,0,0-.232-.788,1.339,1.339,0,0,0-.881-.232h-4.494a2.51,2.51,0,0,0-1.575.371,1.562,1.562,0,0,0-.417,1.251Zm7-4.077a7.178,7.178,0,0,1,1.53.139,1.952,1.952,0,0,1,.973.51,2,2,0,0,1,.509.927,5.843,5.843,0,0,1,.139,1.39v1.714a1.141,1.141,0,0,1-.231.788,1.227,1.227,0,0,1-.787.232H2932.5v.417a1.515,1.515,0,0,0,.417,1.2,2.507,2.507,0,0,0,1.574.371H2942c.232,0,.324.093.324.324v1.529c0,.232-.092.324-.324.324h-7.738a8.474,8.474,0,0,1-2.038-.185,2.645,2.645,0,0,1-1.3-.649,2.288,2.288,0,0,1-.7-1.112,5.8,5.8,0,0,1-.232-1.668V299.66a5.8,5.8,0,0,1,.232-1.668,2.289,2.289,0,0,1,.7-1.112,3.423,3.423,0,0,1,1.3-.649,8.491,8.491,0,0,1,2.038-.185h5.282Z" transform="translate(-1974.508 -208.049)"/>
    <path id="Path_38" data-name="Path 38" class="cls-1" d="M3233.035,229.305a4.918,4.918,0,0,0,.973-.093,1.19,1.19,0,0,0,.927-.927,4.939,4.939,0,0,0,.092-.973v-3.568h-6.486a5.773,5.773,0,0,0-.973.093,1.189,1.189,0,0,0-.928.927,5.231,5.231,0,0,0-.092.927v1.622a5.807,5.807,0,0,0,.092.973,1.189,1.189,0,0,0,.928.927,4.918,4.918,0,0,0,.973.093h4.494Zm1.992-7.691v-3.2a.369.369,0,0,1,.417-.417h1.761a.368.368,0,0,1,.417.417v9.452a5.8,5.8,0,0,1-.231,1.668,2.291,2.291,0,0,1-.7,1.112,3.311,3.311,0,0,1-1.344.649,8.723,8.723,0,0,1-2.038.185h-5.051a8.478,8.478,0,0,1-2.038-.185,2.642,2.642,0,0,1-1.3-.649,2.289,2.289,0,0,1-.695-1.112,5.805,5.805,0,0,1-.231-1.668v-2.595a5.8,5.8,0,0,1,.231-1.668,2.289,2.289,0,0,1,.695-1.112,3.413,3.413,0,0,1,1.3-.649,8.481,8.481,0,0,1,2.038-.185h6.765Z" transform="translate(-2254.886 -133.663)"/>
    <path id="Path_39" data-name="Path 39" class="cls-1" d="M3551.177,220.66a.369.369,0,0,1,.417.417v9.035a.369.369,0,0,1-.417.417h-1.761a.369.369,0,0,1-.418-.417v-9.035a.369.369,0,0,1,.418-.417Zm0-3.66a.369.369,0,0,1,.417.417v1.714a.369.369,0,0,1-.417.417h-1.761a.369.369,0,0,1-.418-.417v-1.714a.369.369,0,0,1,.418-.417Z" transform="translate(-2564.829 -132.709)"/>
    <path id="Path_40" data-name="Path 40" class="cls-1" d="M3640.49,296c.232,0,.324.093.324.324v1.529c0,.232-.093.324-.324.324h-6.949a4.908,4.908,0,0,0-.972.093,1.268,1.268,0,0,0-.6.324,1.843,1.843,0,0,0-.325.6,5.277,5.277,0,0,0-.092.927v1.622a5.859,5.859,0,0,0,.092.973.965.965,0,0,0,.325.6,1.08,1.08,0,0,0,.6.324,4.9,4.9,0,0,0,.972.093h6.949c.232,0,.324.093.324.324v1.529c0,.232-.093.324-.324.324h-7.227a8.478,8.478,0,0,1-2.038-.186,2.651,2.651,0,0,1-1.3-.649,2.291,2.291,0,0,1-.7-1.112A5.794,5.794,0,0,1,3629,302.3v-2.595a5.8,5.8,0,0,1,.232-1.668,2.292,2.292,0,0,1,.7-1.112,3.427,3.427,0,0,1,1.3-.649,8.482,8.482,0,0,1,2.038-.185h7.227Z" transform="translate(-2641.121 -208.049)"/>
    <path id="Path_41" data-name="Path 41" class="cls-1" d="M3905.637,301.016a.568.568,0,0,0,.418-.139.617.617,0,0,0,.139-.463v-1.576h-6.579a1.136,1.136,0,0,0-.787.232.915.915,0,0,0-.232.649v.371a.957.957,0,0,0,.232.7,1.136,1.136,0,0,0,.787.232h6.022Zm-1.2-7.877a8.749,8.749,0,0,1,2.038.185,3.1,3.1,0,0,1,1.3.649,2.293,2.293,0,0,1,.7,1.112,5.8,5.8,0,0,1,.231,1.668v4.772a3.049,3.049,0,0,1-.047.695.623.623,0,0,1-.231.417.9.9,0,0,1-.418.231,2.64,2.64,0,0,1-.648.046h-8.571a5.714,5.714,0,0,1-1.344-.139,1.8,1.8,0,0,1-.834-.463,1.5,1.5,0,0,1-.464-.787,4.187,4.187,0,0,1-.139-1.158v-.881a3.627,3.627,0,0,1,.139-1.019,1.56,1.56,0,0,1,.464-.741,2.446,2.446,0,0,1,.834-.463,5.439,5.439,0,0,1,1.344-.139h7.32V296.8a3.212,3.212,0,0,0-.092-.741.88.88,0,0,0-.324-.51,1.051,1.051,0,0,0-.6-.278,4.88,4.88,0,0,0-.971-.093H3896.6c-.232,0-.325-.093-.325-.324v-1.529c0-.232.093-.324.325-.324h7.785Z" transform="translate(-2895.746 -205.188)"/>
    <path id="Path_42" data-name="Path 42" class="cls-1" d="M4198.178,218a.37.37,0,0,1,.418.417v12.7a.37.37,0,0,1-.418.417h-1.76a.37.37,0,0,1-.419-.417v-12.7a.371.371,0,0,1,.419-.417Z" transform="translate(-3181.846 -133.663)"/>
  </g>
</svg>
