<svg xmlns="http://www.w3.org/2000/svg" xmlns:xlink="http://www.w3.org/1999/xlink" width="25" height="25" viewBox="0 0 25 25">
  <defs>
    <clipPath id="clip-path">
      <rect width="25" height="25" fill="none"/>
    </clipPath>
  </defs>
  <g id="_injections_received" data-name=" injections_received" clip-path="url(#clip-path)">
    <rect id="Rectangle_16" data-name="Rectangle 16" width="25" height="25" fill="none"/>
    <path id="Path_94" data-name="Path 94" d="M515.938,296.437l-2.121-1.379,1.095-1.7,2.043,1.31.612-.94-4.819-3.095-.595.94,1.819,1.172-1.095,1.707h-.009l-1.871-1.2-1.534-.991-.621.94,1.1.707-5.983,9.3a.473.473,0,0,0-.078.414l.741,3.569-1.888,2.914.931.612,1.905-2.931,2.8-.664a2.255,2.255,0,0,1-.017-.345,5.165,5.165,0,0,1,4.81-5.155l2.621-3.966,1.224.793.612-.94Zm-8.31,7.147-1.785-1.233-.25-.164.5-.716.224.155,1.8,1.25Zm1.664-2.6-1.767-1.233-.25-.172.491-.707.216.155,1.81,1.241Zm1.733-2.5L509.18,297.2l-.172-.121.483-.707.155.1,1.879,1.293Z" transform="translate(-497.792 -288.363)"/>
    <path id="Path_95" data-name="Path 95" d="M514.57,304.365a4.163,4.163,0,0,0-.991.121,4.3,4.3,0,0,0-3.319,4.19.837.837,0,0,0,.009.146,4.307,4.307,0,1,0,4.3-4.457Zm-.94,6.285L511.984,309l.422-.414,1.224,1.224,3.112-3.112.414.422Z" transform="translate(-498.829 -290.257)" fill="#00b705"/>
  </g>
</svg>
