<svg xmlns="http://www.w3.org/2000/svg" xmlns:xlink="http://www.w3.org/1999/xlink" width="25" height="25" viewBox="0 0 25 25">
  <defs>
    <clipPath id="clip-path">
      <rect width="25" height="25" fill="none"/>
    </clipPath>
  </defs>
  <g id="labs_received" clip-path="url(#clip-path)">
    <rect id="Rectangle_16" data-name="Rectangle 16" width="25" height="25" fill="none"/>
    <path id="Path_31" data-name="Path 31" d="M512.6,251.66l-2.578,3.922.655.431-8.138,12.405a2.321,2.321,0,0,0,.612,3.216l.112.069a1.779,1.779,0,0,0,.595.276,1.982,1.982,0,0,0,.629.086.4.4,0,0,0,.147-.017,1.4,1.4,0,0,0,.379-.06.237.237,0,0,0,.112-.017,1.409,1.409,0,0,0,.457-.181c.086-.043.164-.095.25-.147a2.219,2.219,0,0,0,.621-.647l1.207-1.836a4.837,4.837,0,0,1-.112-1.069,5.178,5.178,0,0,1,4.138-5.069l2.914-4.44.647.431,2.578-3.914Zm-.914,10.1h-3.845l3.483-5.319,2.621,1.707Z" transform="translate(-497.709 -249.367)"/>
    <g id="Group_105" data-name="Group 105" transform="translate(10.698 14.414)">
      <path id="Path_96" data-name="Path 96" d="M513.72,265.72a4.292,4.292,0,0,0-4.3,4.224.293.293,0,0,0-.009.086,4.31,4.31,0,1,0,4.31-4.31Zm-.94,6.284-1.647-1.647.422-.414,1.224,1.224,3.112-3.1.414.414Z" transform="translate(-509.41 -265.72)" fill="#00b705"/>
    </g>
  </g>
</svg>
