<svg xmlns="http://www.w3.org/2000/svg" xmlns:xlink="http://www.w3.org/1999/xlink" width="25" height="25" viewBox="0 0 25 25">
  <defs>
    <clipPath id="clip-path">
      <rect width="25" height="25" fill="none"/>
    </clipPath>
  </defs>
  <g id="medications_received" clip-path="url(#clip-path)">
    <rect id="Rectangle_16" data-name="Rectangle 16" width="25" height="25" fill="none"/>
    <path id="Path_89" data-name="Path 89" d="M516.072,382.293l-.414-.267a4.372,4.372,0,0,0-3.293-.578,4.317,4.317,0,0,0-2.733,1.922l-6.56,10.293a4.36,4.36,0,0,0,1.345,6.026l.414.267a4.361,4.361,0,0,0,2.336.681,4.577,4.577,0,0,0,.957-.1,5.135,5.135,0,0,0,.948-.328,5.169,5.169,0,0,1,4.086-7.353l-6.078-3.879,3.267-5.147a3.513,3.513,0,0,1,2.207-1.534,3.452,3.452,0,0,1,2.646.466l.414.259a3.512,3.512,0,0,1,1.069,4.845l-3.172,4.966a2.09,2.09,0,0,1,.233-.009,4.533,4.533,0,0,1,.767.06l2.905-4.56A4.368,4.368,0,0,0,516.072,382.293Z" transform="translate(-497.743 -379.323)"/>
    <path id="Path_90" data-name="Path 90" d="M516.293,384.437a.389.389,0,0,1-.534.121,1.855,1.855,0,0,0-.224-.121,2.106,2.106,0,0,0-2.707.767l-.483.75-.336.526a.387.387,0,0,1-.319.181.415.415,0,0,1-.207-.06.392.392,0,0,1-.121-.534l.81-1.276a2.893,2.893,0,0,1,4-.888A.4.4,0,0,1,516.293,384.437Z" transform="translate(-498.973 -379.613)"/>
    <path id="Path_91" data-name="Path 91" d="M515.113,395.672a1.143,1.143,0,0,0-.241-.017,4.312,4.312,0,0,0-4.31,4.31,4.4,4.4,0,0,0,.371,1.759,4.31,4.31,0,1,0,4.181-6.052Zm-1.181,6.267-1.647-1.647.422-.414,1.224,1.224,3.112-3.112.414.414Z" transform="translate(-498.87 -381.297)" fill="#00b705"/>
  </g>
</svg>
