<svg xmlns="http://www.w3.org/2000/svg" xmlns:xlink="http://www.w3.org/1999/xlink" width="25" height="25" viewBox="0 0 25 25">
  <defs>
    <clipPath id="clip-path">
      <rect width="25" height="25" fill="none"/>
    </clipPath>
  </defs>
  <g id="vitals_received" clip-path="url(#clip-path)">
    <rect id="Rectangle_16" data-name="Rectangle 16" width="25" height="25" fill="none"/>
    <path id="Path_87" data-name="Path 87" d="M516.907,337.269a2.28,2.28,0,0,0-.31-.2,3.575,3.575,0,0,0-4.638,1.095l-6.25,8.621a1.135,1.135,0,0,0-.19.862l.31,1.966-3.448,4.715a1.773,1.773,0,0,0,.388,2.432,1.723,1.723,0,0,0,2.414-.379v-.01l3.034-4.189a4.918,4.918,0,0,1-.052-.716,4.576,4.576,0,0,1,.086-.914,5.147,5.147,0,0,1,4.957-4.25.651.651,0,0,1,.129-.009,5.155,5.155,0,0,1,1.216.147l3.121-4.318A3.482,3.482,0,0,0,516.907,337.269ZM504.26,355.691a.58.58,0,0,1-.94-.682l.922-1.258.931.68Zm5.81-9.009-.345.465a.3.3,0,0,1-.405.069l-1.6-1.172.681-.94,1.6,1.172h.009a.27.27,0,0,1,.112.233A.314.314,0,0,1,510.071,346.683Zm2.043-2.811-.345.466a.3.3,0,0,1-.405.069l-1.612-1.181h-.009l.69-.939,1.612,1.181a.3.3,0,0,1,.121.241A.283.283,0,0,1,512.114,343.871Zm2.034-2.819-.345.475a.28.28,0,0,1-.4.06l-1.621-1.182.672-.939,1.621,1.181h.009a.266.266,0,0,1,.112.233A.308.308,0,0,1,514.148,341.052Z" transform="translate(-497.698 -334.364)"/>
    <g id="Group_101" data-name="Group 101" transform="translate(11.332 12.793)">
      <g id="Group_100" data-name="Group 100">
        <path id="Path_88" data-name="Path 88" d="M515.111,348.9a3.3,3.3,0,0,0-.655-.06,4.235,4.235,0,0,0-.81.078,4.313,4.313,0,0,0-3.362,3.155,4.06,4.06,0,0,0-.138,1.078.567.567,0,0,0,.009.121,4.307,4.307,0,1,0,4.957-4.371Zm-1.595,6.215-1.647-1.638.422-.422,1.224,1.233,3.112-3.112.414.414Z" transform="translate(-510.145 -348.84)" fill="#00b705"/>
      </g>
    </g>
  </g>
</svg>
