<svg xmlns="http://www.w3.org/2000/svg" xmlns:xlink="http://www.w3.org/1999/xlink" width="25" height="25" viewBox="0 0 25 25">
  <defs>
    <clipPath id="clip-path">
      <rect width="25" height="25" fill="none"/>
    </clipPath>
  </defs>
  <g id="vitals_ordered" clip-path="url(#clip-path)">
    <path id="Path_97" data-name="Path 97" d="M475.325,337.669a2.368,2.368,0,0,0-.31-.2,3.576,3.576,0,0,0-4.638,1.095l-6.25,8.621a1.134,1.134,0,0,0-.19.862l.31,1.965-3.448,4.716a1.78,1.78,0,0,0,.388,2.431,1.734,1.734,0,0,0,2.422-.379v-.009l3.414-4.716,1.965-.319a1.115,1.115,0,0,0,.759-.44l6.345-8.776A3.474,3.474,0,0,0,475.325,337.669Zm-12.647,18.422a.58.58,0,0,1-.94-.681l.922-1.259.931.681Zm5.81-9.009-.336.466a.3.3,0,0,1-.405.069l-1.612-1.172.681-.94,1.612,1.172A.289.289,0,0,1,468.489,347.083Zm2.043-2.81-.345.466a.3.3,0,0,1-.405.069l-1.612-1.181.681-.94,1.612,1.181A.291.291,0,0,1,470.532,344.272Zm2.034-2.819-.336.474a.289.289,0,0,1-.405.06l-1.621-1.181.672-.94,1.629,1.181A.289.289,0,0,1,472.567,341.453Z" transform="translate(-455.756 -334.419)"/>
    <rect id="Rectangle_16" data-name="Rectangle 16" width="25" height="25" fill="none"/>
  </g>
</svg>
