<svg xmlns="http://www.w3.org/2000/svg" viewBox="0 0 50 50"><defs><style>.a{fill:#666;}.b{fill:none;}</style></defs><g transform="translate(-763 -655)"><path class="a" d="M40.4,20.5a.553.553,0,0,1,.3-.8,1.727,1.727,0,0,0,.4-.3c.7-.6,2.1-2.6.8-7.2a7.814,7.814,0,0,1-3.1,2.6h-.2a.613.613,0,0,1-.2-1.2,6.634,6.634,0,0,0,2.9-2.9A8.185,8.185,0,0,0,42,5.3,5.977,5.977,0,0,0,38,.8c-2.7-1-5.6-.8-6.7-.1A2.907,2.907,0,0,1,32.4,2a.6.6,0,0,1-.4.8h-.2a.675.675,0,0,1-.6-.4A2.826,2.826,0,0,0,29.1.8a7.958,7.958,0,0,0-4.4.5,6.112,6.112,0,0,1,.9,1.4.68.68,0,0,1-.4.8H25a.675.675,0,0,1-.6-.4,2.769,2.769,0,0,0-1.2-1.4c-1.1-.7-2.7-.7-4.6,0,.6.5,1.1.9,1.2,1.2a.68.68,0,0,1-.4.8h-.2a.622.622,0,0,1-.6-.4,6.73,6.73,0,0,0-1.5-1.1.764.764,0,0,1-.5-.2c-1.4-.7-3.6-.9-6.6.7a.67.67,0,0,1,.3.8.553.553,0,0,1-.8.3,6.669,6.669,0,0,0-5-.2A4.118,4.118,0,0,0,1.8,6.2a2.848,2.848,0,0,0,.1,2.7A5,5,0,0,0,4,10.7a.553.553,0,0,1,.3.8.675.675,0,0,1-.6.4H3.5a5.621,5.621,0,0,1-2.3-1.8c-.1,0-.1.1-.2.1-.1.3-.4.8-.8,1.8-.5,1.5.4,3,1.2,4a15.514,15.514,0,0,0,1.4,1.4.651.651,0,0,1,.2.9c-.1.2-.3.2-.5.2a.6.6,0,0,1-.4-.1s-.5-.4-1.1-1c-.8,3.2-.1,5,.6,6a3.594,3.594,0,0,0,1.3,1.1.68.68,0,0,1,.4.8.548.548,0,0,1-.6.4H2.5a3.534,3.534,0,0,1-1.3-.9C.6,28.2,1.8,30,3,30.9a5.475,5.475,0,0,0,1.3.7.676.676,0,0,1-.2,1.3H3.9a3.685,3.685,0,0,1-.9-.4,3.409,3.409,0,0,0,1,2.1,2.771,2.771,0,0,0,2.3.6,2.894,2.894,0,0,0,2-.9A3.682,3.682,0,0,0,8.8,32c-.1,0-.1.1-.2.1-.1-.1-.1-.1-.2-.1-.1.1-.2.1-.4.1a.55.55,0,0,1-.5-.3.744.744,0,0,1,.1-.9c.1,0,.1-.1.2-.1.7-.4,2.7-1.7.8-6.6a2.651,2.651,0,0,1-.5.6c.1.2-.1.2-.3.2a.758.758,0,0,1-.4-.2.633.633,0,0,1-.1-.9c.2-.3.4-.5.6-.8a5.773,5.773,0,0,0,.4-5.8c-.4.6-.8.9-.9.9-.1.1-.2.1-.4.1a.764.764,0,0,1-.5-.2.633.633,0,0,1,.1-.9,4.186,4.186,0,0,0,.9-1.1,4.19,4.19,0,0,0,.1-4.2c-.1,0-.1,0-.1.1-.1,0-.2.1-.3.1a.622.622,0,0,1-.6-.4.63.63,0,0,1,.3-.8A6.7,6.7,0,0,0,8,10.3c.9-.6,1.1-1,1.1-1.1a.807.807,0,0,1,.9-.4.792.792,0,0,1,.5.8,2.994,2.994,0,0,1-.4.8c4.6.8,6.4-.5,7.1-1.3a1.716,1.716,0,0,0,.4-.6.68.68,0,0,1,.8-.4.632.632,0,0,1,.4.8,2.176,2.176,0,0,1-.6,1c-.2,0-.2.1-.3.1A12.419,12.419,0,0,0,22,9.7a.367.367,0,0,1,.3-.1c1.4-.5,1.4-1.2,1.4-1.2a.645.645,0,0,1,.6-.6.73.73,0,0,1,.7.6,2.117,2.117,0,0,1-1.1,1.9,4.089,4.089,0,0,0,2.7-.3c.1-.1.3-.2.4-.3l.6-.4a27.96,27.96,0,0,1,3.3-1.9.68.68,0,0,1,.8.4.68.68,0,0,1-.4.8c-.2.1-1.1.6-1.9,1.1a14.815,14.815,0,0,0,4.3,0A4.574,4.574,0,0,0,37,7.3a.67.67,0,0,1,.8-.3.765.765,0,0,1,.2.9,5.857,5.857,0,0,1-3.8,3c-.5,2.6-.4,4.6.4,5.9a1.38,1.38,0,0,1,.3.4A2.934,2.934,0,0,0,37,18.3a.6.6,0,0,1,0,1.2,4.025,4.025,0,0,1-2.6-1.1c-.8,1.9-.9,3.5-.1,4.5A2.971,2.971,0,0,0,36.1,24c.3.1.6.4.5.7a.634.634,0,0,1-.6.5h-.1a4.98,4.98,0,0,1-1.7-.8,4.855,4.855,0,0,0,.5,2.7,2.692,2.692,0,0,0,1.6,1.4.68.68,0,0,1,.4.8.548.548,0,0,1-.6.4h-.2A4.163,4.163,0,0,1,33.8,28c-.1,0-.2.1-.4,0q-3.45-1.05-5.7.3c-.5.3-.8.6-1.1.8s-.5.4-.8.4a.645.645,0,0,1-.6-.6.675.675,0,0,1,.4-.6.349.349,0,0,1,.2-.1l.1-.1c-1.3-.7-4-1.8-7.1,1.2-1.8,1.7-1.3,5.2,1.4,9.2l.1.1a9.518,9.518,0,0,1,.4,4.8H23c.5-.4,2.5-2.4,1.6-7-.1,0-.2-.1-.3-.1s-.1-.1-.2-.1a.613.613,0,0,1-.2-1.2,1.128,1.128,0,0,1,.8.1,4.875,4.875,0,0,0,.7.3c1.7.5,3.3-.1,5.1-1.8a5.048,5.048,0,0,1-1.2-1.9.608.608,0,0,1,1.2-.2,2.948,2.948,0,0,0,1.2,1.6c1.2.9,3,1.2,5.6.9,3-.3,3.6-4.1,3.7-6a.9.9,0,0,1-.5.1h0a.645.645,0,0,1-.6-.6.56.56,0,0,1,.5-.6,1.727,1.727,0,0,0,.4-.3c.4-.5,1.3-2.2.3-5.9H41A.445.445,0,0,1,40.4,20.5Z" transform="translate(766.943 658.889)"/><rect class="b" width="50" height="50" transform="translate(763 655)"/></g></svg>