<svg xmlns="http://www.w3.org/2000/svg" viewBox="0 0 50 50"><defs><style>.a{fill:#666;}.b,.c{fill:none;}.b{stroke:#666;stroke-linecap:round;stroke-linejoin:round;stroke-miterlimit:10;}</style></defs><g transform="translate(-763 -501)"><g transform="translate(774.576 506.502)"><path class="a" d="M3.1,5.2a3.039,3.039,0,0,0-.5.7C-.8,11.1.6,19,1.4,20.7c3.2,7,11.2,6.3,13.7,11s4.6,7.3,6.8,7.1c2.7-.3,4.2-2,3.7-5.6,0,0,0,4.2-3.6,4.2-6.1-.3-1-7.8-13.9-12.6C2.4,22.4-.7,13.4,2.8,5.7"/><path class="a" d="M24.4,18.8c.8,1.9-1.9,1.1-2.1,3.7.1,1.7,1.7,2.2,1.8,3.8s-.2,2.6-1.5,3.4-1.2-1.1-1.7-3.3-7.2-2.6-4.4-8.3c.9-1.8,3.8,0,4.4-2.4,1.4-4.9-.5-8.7-4.4-10C13,4.5,8.8,6.2,6.6,7.3c-.4.2-.5.1-.1-.3A11.567,11.567,0,0,1,16.7,4a8.945,8.945,0,0,1,6.6,7.5C23.4,14.7,22.7,15.4,24.4,18.8Z"/><path class="a" d="M21.4,16.2S23,13,19.6,11.9c-2.1-.7-2.7,1.2-5.8-.2,2.4.4,4-1.4,5.8-1.4s3.5.9,3.4,2.8A5.592,5.592,0,0,1,21.4,16.2Z"/><path class="b" d="M25.9,4.7s-1.3.9-3.8-.7C19,2,15.4-1.6,6.9,2.1A9.943,9.943,0,0,0,1.8,7.3a20.5,20.5,0,0,0-.4,13.2c3.2,7,11.2,6.7,13.4,11.4s4.5,6.9,6.6,6.6a4.871,4.871,0,0,0,4.3-5.6"/></g><rect class="c" width="50" height="50" transform="translate(763 501)"/></g></svg>