<svg xmlns="http://www.w3.org/2000/svg" viewBox="0 0 50 50"><defs><style>.a{fill:#666;}.b{fill:none;}</style></defs><g transform="translate(-763 -578)"><path class="a" d="M18433.8,19004.646a23.206,23.206,0,0,1-5.7-1c-3.6-.916-9.148-4.314-16.5-10.1-1.668-1.285-2.687-3.758-3.035-7.346a52.44,52.44,0,0,1,.107-8.566v-.008c.082-1.133.148-2.027.127-2.582a5.08,5.08,0,0,0-2.7-4.4c-.1,0-.1-.2-.1-.3a8.051,8.051,0,0,1,2.1-3.1.285.285,0,0,1,.2-.076.281.281,0,0,1,.2.076,10.145,10.145,0,0,1,2.4,2.8,13.636,13.636,0,0,1,.813-1.6l.033-.062a1.871,1.871,0,0,0,.256-.537.3.3,0,0,1,.4,0l.072.059a.412.412,0,0,1,.045.037,6.7,6.7,0,0,1,2.383,3c.021,0,.035.006.039.014s0,.043-.014.078l0,.014a.311.311,0,0,0-.021.1,8.12,8.12,0,0,0-.8,2.1,25.528,25.528,0,0,0-.9,9.295.864.864,0,0,0,.7.6h.1a.763.763,0,0,0,.6-.8,23.055,23.055,0,0,1,.9-8.8,10.537,10.537,0,0,1,1.635-3.191l.023-.035a3.382,3.382,0,0,0,.244-.369.187.187,0,0,0,0-.3l-1.3-1.8v-.2a.671.671,0,0,0,.082-.117l.02-.029a2.133,2.133,0,0,1,.7-.754,3.226,3.226,0,0,1,1.053-.506,2.064,2.064,0,0,0,.25-.09h.006c.094,0,.193,0,.193.1l.9,1.3a.087.087,0,0,0,.023.064.269.269,0,0,0,.178.035.342.342,0,0,0,.2-.1l1-.8a.184.184,0,0,0,.1-.295l-1.1-1.8v-.2c.012-.012.025-.025.041-.043l.049-.051a3.388,3.388,0,0,1,.813-.7,2.6,2.6,0,0,1,1.4-.5.1.1,0,0,1,.1.1l1,1.7a.089.089,0,0,0,.023.066.269.269,0,0,0,.178.035h.1l.8-.4c.1,0,.1-.2.1-.295l-.7-1.8c.01-.082.061-.1.1-.1a6.1,6.1,0,0,1,1.4-.4,4.266,4.266,0,0,1,.631-.047c.2,0,.371.016.508.027l.059,0,.053.006c.063.006.113.01.152.01a.1.1,0,0,1,.1.1,16.547,16.547,0,0,1,.6,2.1,4.059,4.059,0,0,1,2.7,1.1,19.917,19.917,0,0,0-8.553,9.762,17.53,17.53,0,0,0-1.35,5.641.7.7,0,0,0,1.4,0,16.034,16.034,0,0,1,1.688-6.326,17.648,17.648,0,0,1,3.752-5.094,21.5,21.5,0,0,1,7.156-4.383,6.235,6.235,0,0,0,.6,2.6,10.632,10.632,0,0,0,1.9,2.4c-6.533,2.941-6.309,10.066-6.2,11.465a.339.339,0,0,1,0,.035.85.85,0,0,0,.7.6h.1a.751.751,0,0,0,.6-.8.673.673,0,0,0,0-.078l0-.055a11.191,11.191,0,0,1,1.711-6.969c.787.359,2.83,1.645,4.8,5.8,2.961,6.139,2.268,13.254,1.2,19.4a6.652,6.652,0,0,1-2.055,4.186A5.307,5.307,0,0,1,18433.8,19004.646Zm-17.785-9.848a.383.383,0,0,0-.361.254.344.344,0,0,0,.15.393c4.033,3.027,7.074,5,8.795,5.7,1.488.631,5.441,2.309,8.623,2.309a5.743,5.743,0,0,0,2.781-.605c1.26-.76,2.176-2.461,2.8-5.2a.968.968,0,0,0-.2-.812,1.007,1.007,0,0,0-1.611.115,7.244,7.244,0,0,1-3.3,3.2,4.168,4.168,0,0,1-1.656.285c-3,0-8.186-1.826-15.844-5.584A.413.413,0,0,0,18416.014,18994.8Zm21.686-25.553,0,0a5.8,5.8,0,0,1-1.795-2.1,4.73,4.73,0,0,1-.5-2.426c0-.02,0-.037,0-.051v-.027l.1.066.025.018a4.505,4.505,0,0,1,1.771,1.82,7.771,7.771,0,0,1,.4,2.7Z" transform="translate(-17635.002 -18380)"/><rect class="b" width="50" height="50" transform="translate(763 578)"/></g></svg>