<svg xmlns="http://www.w3.org/2000/svg" viewBox="0 0 50 50"><defs><style>.a{fill:#666;}.b,.d{fill:none;}.b{stroke:#0977bc;stroke-linecap:round;stroke-linejoin:round;stroke-miterlimit:10;}.c{fill:#ebecf0;}</style></defs><g transform="translate(-763 -730)"><g transform="translate(0 1)"><path class="a" d="M24.2,12.6a3.721,3.721,0,0,1-1.3-2.8V.8c0-.1-.1-.2-.2-.3A2.95,2.95,0,0,0,21.2,0a2.638,2.638,0,0,0-1.5.5c-.1.1-.2.2-.2.3v9a3.721,3.721,0,0,1-1.3,2.8l-.4.4c.1,1.2.4,2.5.5,4.3A3.282,3.282,0,0,1,21,15.8a4.387,4.387,0,0,1,2.9,1.7c.2-1.9.4-3.5.5-4.8Z" transform="translate(767.008 733)"/><path class="a" d="M32.6,9.3a4.266,4.266,0,0,0-3.2-1.8c-2.2,0-3.9,2.5-4,3.5a18.828,18.828,0,0,0-.3,2.3c-.2,1.4-.3,3.1-.5,5.1-.1,1.4-.3,2.8-.4,4.3a7.745,7.745,0,0,0,2.2,6.1,16.26,16.26,0,0,1,3.5,6.3,8.426,8.426,0,0,0,5.4,6.3,6.959,6.959,0,0,0,1.6.2c2,0,4.6-.7,5.2-3.9,0-.1.1-.9.2-2.1A39.824,39.824,0,0,0,32.6,9.3Z" transform="translate(767.008 733)"/><g transform="translate(767.008 733)"><path class="b" d="M23.2,24.4"/></g><path class="a" d="M12.7,7.5A4.266,4.266,0,0,0,9.5,9.3C-1.7,22.2,0,36.9.2,37.6c.6,3.1,2.9,3.9,5,3.9A8.969,8.969,0,0,0,7,41.3c2.3-.4,3.7-3.7,7.7-4.5,4-.9,3.8-6.5,4-7,.1-.3-1-11.5-1-11.5l-.5-4.8c-.1-1.3-.3-2.2-.3-2.5C16.6,10,15,7.5,12.7,7.5Z" transform="translate(767.008 733)"/><g transform="translate(767.008 733)"><path class="c" d="M17,26.2a24.955,24.955,0,0,1-1.5,4.4c-1.2,2-3.2,3.2-8,3.2-1.8,0-5.9.8-5.9,3.5a1.677,1.677,0,0,0,1.6,1.9,2.189,2.189,0,0,1-.8-1.9c0-1.3,2.5-2.1,4.6-2.4.4,0,.8-.1,1.1-.1,3.6,0,6-.5,7.5-3A9.345,9.345,0,0,0,17,26.2Z"/></g><g transform="translate(767.008 733)"><path class="c" d="M25.4,22a24.1,24.1,0,0,0,1.3,3.8c1,1.7,5.5,3.2,9.5,3.2,1.5,0,4.4.1,4.9,3a17.357,17.357,0,0,1,.1,1.8s-.2-.9-.3-1.3c-.4-2-2.6-2.2-4.4-2.5a3.751,3.751,0,0,1-1-.1c-3,0-7.9-.9-9.2-3A9.4,9.4,0,0,1,25.4,22Z"/></g></g><rect class="d" width="50" height="50" transform="translate(763 730)"/></g></svg>