<svg xmlns="http://www.w3.org/2000/svg" xmlns:xlink="http://www.w3.org/1999/xlink" viewBox="0 0 50 50"><defs><style>.a,.e,.g,.h{fill:#fff;}.b{fill:none;}.c{fill:#666;}.d{clip-path:url(#a);}.e,.g,.h{stroke:#666;}.e,.h{stroke-miterlimit:10;}.f{clip-path:url(#b);}.h{stroke-linecap:round;stroke-linejoin:round;}</style><clipPath id="a"><path d="M10.6,14.9,18,4.9,40.4,6.2l6.8,11.4L47,21.5,37.4,31.7,21,32.1,12.9,26,9.8,19.3Z"/></clipPath><clipPath id="b"><path class="a" d="M10.6,14.9,18,4.9,40.4,6.2l6.8,11.4L47,21.5,37.4,31.7,21,32.1,12.9,26,9.8,19.3Z"/></clipPath></defs><g transform="translate(-763 -424)"><rect class="b" width="50" height="50" transform="translate(763 424)"/><g transform="translate(0 0.001)"><path class="c" d="M12.6,25.8,9.3,18.7,14.7,7.6l13-3,14,3.5,5.8,8.4-.6,4.8-2.2,4.1L33.6,31.8l-14.2-.7Z" transform="translate(759.699 430.4)"/><g class="d" transform="translate(759.699 430.4)"><path class="e" d="M12.5,26.7c.3-1.5-.3-2,3.1-5.2s8.9-1.3,13-1.3,9.2-2.1,12.3.9a5.9,5.9,0,0,1,2.2,4.4C43.4,28.7,12,29.3,12.5,26.7Z"/></g><g class="f" transform="translate(759.699 430.4)"><path class="g" d="M49.8,13.2a1.391,1.391,0,0,1-1.1-1.7c.2-.9.4-1.7.6-2.6a1.431,1.431,0,0,1,1.8-1c1,.2,2,.5,3,.7a1.491,1.491,0,0,1,1.1,1.8c-.2.8-.5,1.7-.7,2.5a1.431,1.431,0,0,1-1.8,1C51.6,13.7,50.7,13.4,49.8,13.2Z"/><path class="g" d="M44,12a1.437,1.437,0,0,1-1.2-1.6c.1-.9.3-1.7.4-2.6a1.48,1.48,0,0,1,1.7-1.2l3,.6a1.458,1.458,0,0,1,1.2,1.7c-.2.9-.4,1.7-.6,2.6a1.466,1.466,0,0,1-1.7,1.1C45.9,12.4,45,12.2,44,12Z"/><path class="g" d="M38.2,11.2a1.456,1.456,0,0,1-1.3-1.6c.1-.8.2-1.7.3-2.6a1.5,1.5,0,0,1,1.7-1.3c1,.1,2,.2,3,.4a1.516,1.516,0,0,1,1.3,1.6c-.1.9-.3,1.7-.4,2.6a1.437,1.437,0,0,1-1.6,1.2C40.1,11.4,39.2,11.3,38.2,11.2Z"/><path class="g" d="M32.4,10.8A1.453,1.453,0,0,1,31,9.3c0-.9.1-1.8.1-2.6a1.483,1.483,0,0,1,1.6-1.4c1,0,2,.1,3,.2A1.316,1.316,0,0,1,37,7a24.622,24.622,0,0,0-.2,2.6,1.456,1.456,0,0,1-1.6,1.3C34.3,10.9,33.3,10.8,32.4,10.8Z"/><path class="g" d="M26.5,10.7A1.453,1.453,0,0,1,25,9.3V6.6a1.536,1.536,0,0,1,1.5-1.5h3A1.538,1.538,0,0,1,31,6.6c0,.9-.1,1.8-.1,2.6a1.453,1.453,0,0,1-1.5,1.4A28.1,28.1,0,0,0,26.5,10.7Z"/><path class="g" d="M20.7,10.9a1.456,1.456,0,0,1-1.6-1.3C19,8.8,19,7.9,18.9,7a1.338,1.338,0,0,1,1.4-1.5c1-.1,2-.1,3-.2a1.617,1.617,0,0,1,1.6,1.4c0,.9.1,1.8.1,2.6a1.52,1.52,0,0,1-1.4,1.5C22.6,10.8,21.6,10.9,20.7,10.9Z"/><path class="g" d="M14.9,11.6a1.383,1.383,0,0,1-1.6-1.2c-.1-.9-.3-1.7-.4-2.6a1.456,1.456,0,0,1,1.3-1.6c1-.1,2-.3,3-.4a1.553,1.553,0,0,1,1.7,1.3,24.622,24.622,0,0,1,.2,2.6,1.456,1.456,0,0,1-1.3,1.6A13.575,13.575,0,0,0,14.9,11.6Z"/><path class="g" d="M9.1,12.6a1.349,1.349,0,0,1-1.7-1.1c-.2-.9-.4-1.7-.6-2.6A1.391,1.391,0,0,1,8,7.2l3-.6a1.48,1.48,0,0,1,1.7,1.2c.1.9.3,1.7.4,2.6A1.383,1.383,0,0,1,11.9,12C11,12.2,10,12.4,9.1,12.6Z"/><path class="g" d="M3.3,13.9a1.431,1.431,0,0,1-1.8-1c-.2-.8-.5-1.7-.7-2.5A1.491,1.491,0,0,1,1.9,8.6c1-.3,2-.5,3-.7a1.512,1.512,0,0,1,1.8,1c.2.9.4,1.7.6,2.6a1.391,1.391,0,0,1-1.1,1.7C5.2,13.4,4.3,13.7,3.3,13.9Z"/></g><g class="f" transform="translate(759.699 430.4)"><path class="g" d="M51.5,26.9a1.486,1.486,0,0,1-1.9-.9c-.2-.8-.5-1.7-.7-2.5a1.474,1.474,0,0,1,1-1.8c.9-.3,1.9-.6,2.8-.9a1.478,1.478,0,0,1,1.9.8c.3.8.6,1.6.9,2.5a1.54,1.54,0,0,1-1,1.9A26.278,26.278,0,0,0,51.5,26.9Z"/><path class="g" d="M45.3,28.5a1.445,1.445,0,0,1-1.8-1.1c-.2-.9-.3-1.7-.5-2.6a1.466,1.466,0,0,1,1.1-1.7,28.638,28.638,0,0,0,2.8-.7,1.431,1.431,0,0,1,1.8,1c.2.8.5,1.7.7,2.5a1.491,1.491,0,0,1-1.1,1.8C47.3,28,46.3,28.3,45.3,28.5Z"/><path class="g" d="M39,29.6a1.429,1.429,0,0,1-1.7-1.2c-.1-.9-.2-1.7-.3-2.6a1.456,1.456,0,0,1,1.3-1.6,29.31,29.31,0,0,0,2.9-.5,1.493,1.493,0,0,1,1.7,1.1c.2.9.3,1.7.5,2.6a1.461,1.461,0,0,1-1.3,1.7A28.679,28.679,0,0,1,39,29.6Z"/><path class="g" d="M32.7,30.2a1.411,1.411,0,0,1-1.6-1.3c0-.9-.1-1.8-.1-2.6a1.52,1.52,0,0,1,1.4-1.5c1-.1,1.9-.1,2.9-.2a1.456,1.456,0,0,1,1.6,1.3c.1.9.2,1.7.3,2.6a1.467,1.467,0,0,1-1.4,1.6C34.8,30.1,33.8,30.2,32.7,30.2Z"/><path class="g" d="M26.4,30.4a1.473,1.473,0,0,1-1.5-1.5c0-.9.1-1.8.1-2.6a1.453,1.453,0,0,1,1.5-1.4h2.9a1.453,1.453,0,0,1,1.5,1.4c0,.9.1,1.8.1,2.6a1.536,1.536,0,0,1-1.5,1.5Z"/><path class="g" d="M20.1,30a1.467,1.467,0,0,1-1.4-1.6c.1-.9.2-1.7.3-2.6a1.533,1.533,0,0,1,1.6-1.3,28.252,28.252,0,0,0,2.9.2,1.453,1.453,0,0,1,1.4,1.5c0,.9-.1,1.8-.1,2.6a1.4,1.4,0,0,1-1.6,1.3A16.079,16.079,0,0,1,20.1,30Z"/><path class="g" d="M13.8,29.1a1.533,1.533,0,0,1-1.3-1.7c.2-.9.3-1.7.5-2.6a1.391,1.391,0,0,1,1.7-1.1c.9.2,1.9.3,2.9.5a1.456,1.456,0,0,1,1.3,1.6c-.1.9-.2,1.7-.3,2.6a1.48,1.48,0,0,1-1.7,1.2C15.9,29.5,14.8,29.3,13.8,29.1Z"/><path class="g" d="M7.6,27.8A1.491,1.491,0,0,1,6.5,26c.2-.8.5-1.7.7-2.5a1.431,1.431,0,0,1,1.8-1c.9.2,1.9.5,2.8.7a1.391,1.391,0,0,1,1.1,1.7c-.2.9-.3,1.7-.5,2.6a1.491,1.491,0,0,1-1.8,1.1C9.6,28.3,8.6,28,7.6,27.8Z"/><path class="g" d="M1.5,25.9A1.5,1.5,0,0,1,.5,24c.3-.8.6-1.6.9-2.5a1.478,1.478,0,0,1,1.9-.8c.9.3,1.8.6,2.8.9a1.431,1.431,0,0,1,1,1.8c-.2.8-.5,1.7-.7,2.5a1.412,1.412,0,0,1-1.9.9C3.5,26.6,2.5,26.2,1.5,25.9Z"/></g><path class="h" d="M9.3,18.7S12,6.8,27.7,6.8s19.5,12,19.5,12C47.2,11,40.2.6,33.5.6c-2,0-3.7,1.5-5.4,1.5S24.9.6,21.6.6,9.3,8.2,9.3,18.7Z" transform="translate(759.699 430.4)"/><path class="h" d="M47.2,19s-1.1,18.3-19,18.3S9.3,18.8,9.3,18.8s5.1,10,18.9,10S47.2,19,47.2,19Z" transform="translate(759.699 430.4)"/></g></g></svg>