<svg xmlns="http://www.w3.org/2000/svg" viewBox="0 0 50 50"><defs><style>.a{fill:#666;}.b,.c{fill:none;}.b{stroke:#666;stroke-linecap:round;stroke-linejoin:round;stroke-miterlimit:10;}</style></defs><g transform="translate(-763 -349)"><g transform="translate(-1.999)"><g transform="translate(774.486 350.5)"><path class="a" d="M19.8,33.5c.6.3.9.8,0,1.6-1.9,1.5-3.1.1-5.4.6.9-.8,1.7-1.5,2.4-2A2.75,2.75,0,0,1,19.8,33.5Z"/><path class="b" d="M14.4,35.7c.9-.8,1.7-1.5,2.4-2a2.936,2.936,0,0,1,3-.2c.6.3.9.8,0,1.6C17.9,36.5,16.7,35.2,14.4,35.7Z"/><path class="b" d="M13.3.5A46.6,46.6,0,0,0,26.1,22.7c2.3,2.1,10.6,12.1-3.9,15.7a8.246,8.246,0,0,0-6.3,7.9"/><path class="b" d="M4.7,26.8s-6.5,7.1-3.3,11.1c1.5,2,5.4,2.8,8.6,1.2a17.905,17.905,0,0,0,4.4-3.4"/></g></g><rect class="c" width="50" height="50" transform="translate(763 349)"/></g></svg>